<svg width="32" height="30" viewBox="0 0 32 30" fill="none" xmlns="http://www.w3.org/2000/svg">
<path fill-rule="evenodd" clip-rule="evenodd" d="M18.2963 17.97C17.9563 18.59 17.2963 19 16.5463 19H9.09628L7.99628 21H19.9963V23H7.99628C6.47628 23 5.51628 21.37 6.24628 20.03L7.59628 17.59L3.99628 10H1.99628V8H5.26628L6.20628 10H21.0063C21.7663 10 22.2463 10.82 21.8763 11.48L18.2963 17.97ZM19.3063 12H7.15628L9.52628 17H16.5463L19.3063 12ZM7.99628 24C6.89628 24 6.00628 24.9 6.00628 26C6.00628 27.1 6.89628 28 7.99628 28C9.09628 28 9.99628 27.1 9.99628 26C9.99628 24.9 9.09628 24 7.99628 24ZM16.0063 26C16.0063 24.9 16.8963 24 17.9963 24C19.0963 24 19.9963 24.9 19.9963 26C19.9963 27.1 19.0963 28 17.9963 28C16.8963 28 16.0063 27.1 16.0063 26Z" fill="#4B4B4B"/>
<circle cx="24" cy="8" r="8" fill="#F2726F"/>
<path d="M26.4609 10.0625V11H21.6953V10.1943L24.0098 7.66992C24.2637 7.38346 24.4639 7.13607 24.6104 6.92773C24.7568 6.7194 24.8594 6.53223 24.918 6.36621C24.9798 6.19694 25.0107 6.03255 25.0107 5.87305C25.0107 5.64844 24.9684 5.4515 24.8838 5.28223C24.8024 5.1097 24.682 4.97461 24.5225 4.87695C24.363 4.77604 24.1693 4.72559 23.9414 4.72559C23.6777 4.72559 23.4564 4.78255 23.2773 4.89648C23.0983 5.01042 22.9632 5.16829 22.8721 5.37012C22.7809 5.56868 22.7354 5.79655 22.7354 6.05371H21.5586C21.5586 5.6403 21.653 5.2627 21.8418 4.9209C22.0306 4.57585 22.304 4.30241 22.6621 4.10059C23.0202 3.89551 23.4515 3.79297 23.9561 3.79297C24.4313 3.79297 24.835 3.87272 25.167 4.03223C25.499 4.19173 25.7513 4.41797 25.9238 4.71094C26.0996 5.00391 26.1875 5.35059 26.1875 5.75098C26.1875 5.97233 26.1517 6.19206 26.0801 6.41016C26.0085 6.62826 25.9059 6.84635 25.7725 7.06445C25.6423 7.2793 25.4876 7.49577 25.3086 7.71387C25.1296 7.92871 24.9326 8.14681 24.7178 8.36816L23.1797 10.0625H26.4609Z" fill="white"/>
</svg>
